<svg xmlns="http://www.w3.org/2000/svg" viewBox="0 0 64 64" width="64" height="64">
  <rect width="64" height="64" rx="14" fill="#164E2A" />
  <rect x="2" y="2" width="60" height="60" rx="12" fill="none" stroke="#D4AF37" stroke-width="3" />
  <!-- Porción de Pizza "El Alemán" -->
  <g transform="translate(6, 6)">
    <!-- Masa / Borde -->
    <path d="M 8 10 A 30 30 0 0 1 44 10 L 26 44 Z" fill="#D4AF37" stroke="#221F1B" stroke-width="3" stroke-linejoin="round" />
    <!-- Salsa y Queso -->
    <path d="M 12 13 A 24 24 0 0 1 40 13 L 26 40 Z" fill="#A8201A" />
    <path d="M 14 15 A 20 20 0 0 1 38 15 L 26 36 Z" fill="#FAF7F0" />
    <!-- Pepperoni / Rodajas -->
    <circle cx="21" cy="20" r="3.5" fill="#A8201A" stroke="#221F1B" stroke-width="1.5" />
    <circle cx="31" cy="20" r="3.5" fill="#A8201A" stroke="#221F1B" stroke-width="1.5" />
    <circle cx="26" cy="29" r="3.5" fill="#A8201A" stroke="#221F1B" stroke-width="1.5" />
    <!-- Albahaca verde -->
    <path d="M 23 15 C 21 13 25 12 25 15 Z" fill="#164E2A" />
    <path d="M 28 24 C 26 22 30 21 30 24 Z" fill="#164E2A" />
  </g>
</svg>